<svg width="1200" height="720" viewBox="0 0 1200 720" xmlns="http://www.w3.org/2000/svg">
  <defs>
    <marker id="arrow" markerWidth="10" markerHeight="10" refX="8" refY="5" orient="auto" markerUnits="strokeWidth">
      <path d="M0,0 L10,5 L0,10 Z" fill="#38bdf8"/>
    </marker>
  </defs>

  <rect width="100%" height="100%" fill="#0B1020"/>

  <rect x="40" y="40" width="420" height="300" fill="#020617" stroke="#38bdf8" stroke-width="2" rx="18"/>
  <text x="60" y="75" fill="#e5e7eb" font-size="18" font-weight="bold" font-family="Arial, sans-serif">Flutter App (Android · iOS · Web)</text>
  <text x="60" y="100" fill="#94a3b8" font-size="13" font-family="Arial, sans-serif">Single Codebase · Real-time UI</text>

  <rect x="70" y="130" width="160" height="50" fill="#020617" stroke="#64748b" stroke-width="1.5" rx="14"/>
  <text x="150" y="160" text-anchor="middle" fill="#cbd5f5" font-size="14" font-family="Arial, sans-serif">Auth Screens</text>

  <rect x="250" y="130" width="160" height="50" fill="#020617" stroke="#64748b" stroke-width="1.5" rx="14"/>
  <text x="330" y="160" text-anchor="middle" fill="#cbd5f5" font-size="14" font-family="Arial, sans-serif">Avatar Builder</text>

  <rect x="70" y="200" width="160" height="50" fill="#020617" stroke="#64748b" stroke-width="1.5" rx="14"/>
  <text x="150" y="230" text-anchor="middle" fill="#cbd5f5" font-size="14" font-family="Arial, sans-serif">Groups &amp; Home</text>

  <rect x="250" y="200" width="160" height="50" fill="#020617" stroke="#64748b" stroke-width="1.5" rx="14"/>
  <text x="330" y="230" text-anchor="middle" fill="#cbd5f5" font-size="14" font-family="Arial, sans-serif">Ping Room</text>

  <rect x="160" y="265" width="180" height="50" fill="#020617" stroke="#64748b" stroke-width="1.5" rx="14"/>
  <text x="250" y="295" text-anchor="middle" fill="#cbd5f5" font-size="14" font-family="Arial, sans-serif">Timers · Voting · Privacy</text>


  <rect x="520" y="40" width="420" height="300" fill="#020617" stroke="#38bdf8" stroke-width="2" rx="18"/>
  <text x="540" y="75" fill="#e5e7eb" font-size="18" font-weight="bold" font-family="Arial, sans-serif">Firebase (Serverless Backend)</text>
  <text x="540" y="100" fill="#94a3b8" font-size="13" font-family="Arial, sans-serif">Real-time · Auto-scaled</text>

  <rect x="550" y="130" width="170" height="50" fill="#020617" stroke="#64748b" stroke-width="1.5" rx="14"/>
  <text x="635" y="160" text-anchor="middle" fill="#cbd5f5" font-size="14" font-family="Arial, sans-serif">Firebase Auth</text>

  <rect x="750" y="130" width="170" height="50" fill="#020617" stroke="#64748b" stroke-width="1.5" rx="14"/>
  <text x="835" y="160" text-anchor="middle" fill="#cbd5f5" font-size="14" font-family="Arial, sans-serif">Cloud Firestore</text>

  <rect x="650" y="200" width="170" height="50" fill="#020617" stroke="#64748b" stroke-width="1.5" rx="14"/>
  <text x="735" y="230" text-anchor="middle" fill="#cbd5f5" font-size="14" font-family="Arial, sans-serif">FCM Notifications</text>

  <rect x="650" y="265" width="170" height="50" fill="#020617" stroke="#64748b" stroke-width="1.5" rx="14"/>
  <text x="735" y="295" text-anchor="middle" fill="#cbd5f5" font-size="14" font-family="Arial, sans-serif">Ephemeral Ping Data</text>


  <rect x="300" y="380" width="540" height="240" fill="#020617" stroke="#38bdf8" stroke-width="2" rx="18"/>
  <text x="320" y="415" fill="#e5e7eb" font-size="18" font-weight="bold" font-family="Arial, sans-serif">External &amp; Device Layer</text>
  <text x="320" y="440" fill="#94a3b8" font-size="13" font-family="Arial, sans-serif">Identity · Delivery · OS</text>

  <rect x="330" y="470" width="180" height="55" fill="#020617" stroke="#64748b" stroke-width="1.5" rx="14"/>
  <text x="420" y="505" text-anchor="middle" fill="#cbd5f5" font-size="14" font-family="Arial, sans-serif">Google Sign-In</text>

  <rect x="560" y="470" width="230" height="55" fill="#020617" stroke="#64748b" stroke-width="1.5" rx="14"/>
  <text x="675" y="505" text-anchor="middle" fill="#cbd5f5" font-size="14" font-family="Arial, sans-serif">Android / iOS / Web OS</text>


  <g fill="none" stroke="#38bdf8" stroke-width="2" marker-end="url(#arrow)">
    <path d="M230 155 C380 155 480 155 540 155"/>
    <path d="M330 225 C460 240 560 260 740 160"/>
    <path d="M330 225 C460 300 560 300 640 300"/>
    <path d="M420 505 C420 340 260 320 230 255"/>
    <path d="M750 225 C650 310 450 340 330 295"/>
  </g>

  <text x="600" y="690" text-anchor="middle" fill="#94a3b8" font-size="13" font-family="Arial, sans-serif">
    Ping Architecture · Ephemeral-by-design · No message history stored
  </text>

</svg>
